{"title":"Hoogvliegers, The Flyboys 2008 DVDrip Dutch Klam","uid":6557944,"size":1465210572,"categoryP":"video","categoryS":"movies","magnet":"?xt=urn:btih:54ea21aa3381e88ede50e7311a67d6ab83906a64&amp;dn=Hoogvliegers%2C+The+Flyboys+2008+DVDrip+Dutch+Klam&amp;tr=udp%3A%2F%2Ftracker.openbittorrent.com%3A80&amp;tr=udp%3A%2F%2Fopen.demonii.com%3A1337&amp;tr=udp%3A%2F%2Ftracker.coppersurfer.tk%3A6969&amp;tr=udp%3A%2F%2Fexodus.desync.com%3A6969","seeders":1,"leechers":1,"uploader":"Klambake","files":-1,"time":1311350556,"description":"Dutch spoken, Nederlands gesproken\n\nWith: Jesse James, Reiley McClendon and Stephen Baldwin\n\nJason en Kyle zijn twee beste vrienden die vaak te vinden zijn op een plaatselijk vliegveldje. Als de twee een mysterieus vliegtuig ontdekken, besluiten ze uit nieuwsgierigheid aan boord te gaan. Als ook twee onbekende mannen het vliegtuig betreden verstoppen ze zichzelf, maar komen ze er ook achter dat er beweging in het vliegtuig komt. Voordat ze het weten vliegen ze boven de woestijn van Arizona en begint het avontuur...\n\nTwo boys from a small town find their courage tested when they accidentally stow away aboard an airplane owned by the mob. \n\n------------------ Dutch F76riends ------------------\nYou can find my Friends at: http://www.Film-Test.nl \n------ They got my dutchs subs ---- and more ------\n\nGeneral:\n\nComplete name                    : The Flyboys\\Hoogvliegers.avi\nFormat                           : AVI\nFormat/Info                      : Audio Video Interleave\nFile size                        : 1.36 GiB\nDuration                         : 1h 39mn\nOverall bit rate                 : 1 961 Kbps\n\nVideo:\n\nFormat                           : MPEG-4 Visual\nFormat profile                   : Simple@L3\nFormat settings, BVOP            : No\nFormat settings, QPel            : No\nFormat settings, GMC             : No warppoints\nFormat settings, Matrix          : Default (H.263)\nCodec ID                         : XVID\nCodec ID/Hint                    : XviD\nDuration                         : 1h 39mn\nBit rate                         : 1 502 Kbps\nWidth                            : 652 pixels\nHeight                           : 352 pixels\nDisplay aspect ratio             : 1.852\nFrame rate                       : 25.000 fps\nColor space                      : YUV\nChroma subsampling               : 4:2:0\nBit depth                        : 8 bits\nScan type                        : Progressive\nBits/(Pixel*Frame)               : 0.262\nStream size                      : 1.05 GiB (77%)\nWriting library                  : XviD 1.1.2 (UTC 2006-11-01)\n\nAudio:\n\nFormat                           : AC-3\nFormat/Info                      : Audio Coding 3\nMode extension                   : CM (complete main)\nCodec ID                         : 2000\nDuration                         : 1h 39mn\nBit rate mode                    : Constant\nBit rate                         : 448 Kbps\nChannel(s)                       : 6 channels\nChannel positions                : Front: L C R, Side: L R, LFE\nSampling rate                    : 48.0 KHz\nBit depth                        : 16 bits\nStream size                      : 319 MiB (23%)\nAlignment                        : Aligned on interleaves\nInterleave, duration             : 32 ms (0.80 video frame)\nInterleave, preload duration     : 576 ms\n","torrent":{"xt":"urn:btih:54ea21aa3381e88ede50e7311a67d6ab83906a64","amp;dn":"Hoogvliegers%2C+The+Flyboys+2008+DVDrip+Dutch+Klam","amp;tr":["udp%3A%2F%2Ftracker.openbittorrent.com%3A80","udp%3A%2F%2Fopen.demonii.com%3A1337","udp%3A%2F%2Ftracker.coppersurfer.tk%3A6969","udp%3A%2F%2Fexodus.desync.com%3A6969"],"infoHash":"54ea21aa3381e88ede50e7311a67d6ab83906a64","infoHashBuffer":{"type":"Buffer","data":[84,234,33,170,51,129,232,142,222,80,231,49,26,103,214,171,131,144,106,100]},"announce":[],"urlList":[]}}